:SAMPLES-PER-SECOND 30
:FULLY-SPECIFIED
:DEGREES
144
root  -58.5539 41.0194 -5.91041 176.506 6.48382 177.358
RightUpLeg  -20.0785 -6.88439 -0.157
RightLeg  12.0534 -3.2538 0.358118
RightFoot  -5.52714 -0.180035 2.78633
RightToes  1.16414e-010 0 -3.6325e-017
Spine  6.22568 -4.39843 -1.10841
Spine1  3.38284 -5.58757 4.749
HEad  -10.0306 11.5517 -3.00439
LeftShoulder1  6.30426 -9.33777 -42.6423
LeftArm  6.09687 19.1014 -33.1904
LeftForeArm  -175.234 -60.9537 -163.519
LeftHand  -0.244104 0.0205437 5.32207
RightShoulder  3.9478 7.51678 29.8557
RightArm  10.5547 -55.2177 23.0037
RightForeArm  156.297 68.8109 153.18
RightHand  0.0271591 -7.66373 -3.31247
LeftUpLeg  9.73359 16.9229 -0.472931
LeftLeg  25.2573 -0.783015 -0.0138724
LeftFoot  -0.318339 0.734185 -7.59655
LeftToes  9.04034e-010 7.59002e-011 -1.12606e-011
145
root  -58.3698 40.5696 -7.70118 175.372 4.37926 177.898
RightUpLeg  -17.7802 -6.99549 0.216913
RightLeg  12.2462 -5.54455 0.7863
RightFoot  -6.6072 -0.152093 2.55323
RightToes  1.16414e-010 0 -3.6325e-017
Spine  6.00084 -4.55395 0.49307
Spine1  4.36882 -5.4603 4.26961
HEad  -8.07124 9.29924 -2.91468
LeftShoulder1  6.10398 -9.19064 -41.7011
LeftArm  6.77473 18.6069 -34.2374
LeftForeArm  -176.18 -62.18 -162.599
LeftHand  -0.244104 0.0205437 5.32207
RightShoulder  3.76257 7.46705 28.2931
RightArm  5.14916 -57.7754 27.6995
RightForeArm  156.659 69.1939 152.718
RightHand  0.0298077 -7.64937 -3.43223
LeftUpLeg  7.77845 13.026 0.596696
LeftLeg  35.1113 -0.272839 0.147165
LeftFoot  2.24315 1.2297 -10.468
LeftToes  9.04034e-010 7.59002e-011 -1.12606e-011
146
root  -58.2089 39.796 -9.44145 174.556 2.25281 179.061
RightUpLeg  -17.5834 -8.9704 2.12327
RightLeg  16.7727 -4.67325 0.297941
RightFoot  -4.77222 0.0537781 -1.15656
RightToes  1.16414e-010 0 -3.6325e-017
Spine  5.7991 -4.50977 3.36519
Spine1  4.88086 -4.80146 3.05584
HEad  -7.23418 5.9618 -3.67811
LeftShoulder1  5.69118 -8.74971 -40.1488
LeftArm  7.19281 18.3422 -36.0823
LeftForeArm  -176.458 -63.3855 -161.687
LeftHand  -0.244104 0.0205437 5.32207
RightShoulder  3.58817 7.25691 27.3194
RightArm  0.690439 -59.327 31.036
RightForeArm  158.592 69.005 153.232
RightHand  0.0130178 -7.28284 -3.04193
LeftUpLeg  4.35816 9.86366 2.38259
LeftLeg  46.6605 0.562676 1.11153
LeftFoot  2.40939 1.35368 -11.3298
LeftToes  9.04034e-010 7.59002e-011 -1.12606e-011
147
root  -58.0921 39.0213 -11.0822 173.79 1.09604 -179.195
RightUpLeg  -18.9034 -11.6247 5.30744
RightLeg  23.8288 -1.94389 -0.942579
RightFoot  -2.22886 0.555118 -7.27955
RightToes  1.16414e-010 0 -3.6325e-017
Spine  6.65712 -4.19304 7.18544
Spine1  4.53459 -3.75857 1.28602
HEad  -9.21121 2.64996 -5.44959
LeftShoulder1  5.15878 -7.76552 -39.5382
LeftArm  7.05467 17.9563 -37.6249
LeftForeArm  -175.46 -64.7125 -160.721
LeftHand  -0.244104 0.0205437 5.32207
RightShoulder  3.61574 6.84891 28.9523
RightArm  0.581506 -56.911 28.9235
RightForeArm  155.45 69.4015 152.286
RightHand  0.0363773 -7.22637 -4.41405
LeftUpLeg  0.142723 7.35425 4.51365
LeftLeg  57.795 2.10623 4.19839
LeftFoot  0.597558 0.979745 -9.32457
LeftToes  9.04034e-010 7.59002e-011 -1.12606e-011
148
root  -57.9875 38.3925 -12.5563 172.528 0.853264 -177.367
RightUpLeg  -19.5003 -9.8867 7.25187
RightLeg  31.4848 -3.71404 -2.76526
RightFoot  -3.41499 0.74679 -11.105
RightToes  1.16414e-010 0 -3.6325e-017
Spine  9.08059 -3.98081 10.3114
Spine1  3.8794 -2.92753 -0.0227737
HEad  -12.6667 0.757618 -6.47711
LeftShoulder1  5.18246 -7.33379 -41.3998
LeftArm  5.19441 18.3292 -36.9807
LeftForeArm  -174.073 -67.15 -158.605
LeftHand  -0.244104 0.0205437 5.32207
RightShoulder  3.93637 6.66745 32.7359
RightArm  1.52062 -49.0091 24.9595
RightForeArm  148.249 72.4248 146.061
RightHand  0.0981703 -7.88957 -6.17263
LeftUpLeg  -4.18152 4.9597 6.30795
LeftLeg  66.8655 2.89479 8.09522
LeftFoot  -2.10209 0.472392 -5.67481
LeftToes  9.04034e-010 7.59002e-011 -1.12606e-011
149
root  -57.8489 38.0399 -13.8804 171.1 0.603212 -176.271
RightUpLeg  -18.2454 -8.64635 8.12532
RightLeg  36.8357 -5.60889 -4.74924
RightFoot  -7.80167 0.298721 -11.0538
RightToes  1.16414e-010 0 -3.6325e-017
Spine  11.3776 -3.85593 11.2782
Spine1  4.10304 -2.50281 0.0644048
HEad  -14.8935 0.00162885 -5.92307
LeftShoulder1  6.03541 -8.31969 -44.3998
LeftArm  1.45458 20.5338 -34.6446
LeftForeArm  -175.988 -71.2242 -153.389
LeftHand  -0.244104 0.0205437 5.32207
RightShoulder  4.45675 7.12882 35.9318
RightArm  -0.367127 -38.9898 24.5472
RightForeArm  140.194 77.0365 131.98
RightHand  0.109205 -8.52277 -5.47887
LeftUpLeg  -8.42164 2.17554 6.98214
LeftLeg  71.8454 2.65602 9.9215
LeftFoot  -4.27065 0.205939 -2.98052
LeftToes  9.04034e-010 7.59002e-011 -1.12606e-011
150
root  -57.6659 38.0816 -15.1646 170.257 0.0511514 -176.475
RightUpLeg  -15.5041 -8.53169 7.71916
RightLeg  38.1919 -6.33915 -5.60176
RightFoot  -11.3361 -0.0788995 -9.7259
RightToes  1.16414e-010 0 -3.6325e-017
Spine  11.948 -3.26398 10.4804
Spine1  5.13988 -1.9535 0.753694
HEad  -14.6605 -0.732752 -4.08972
LeftShoulder1  6.98034 -9.71069 -46.063
LeftArm  -1.6737 24.0363 -32.4845
LeftForeArm  174.378 -75.7823 -143.118
LeftHand  -0.244104 0.0205437 5.32207
RightShoulder  4.91958 7.87767 37.2138
RightArm  -3.77557 -31.7209 27.5764
RightForeArm  132.465 79.5254 117.163
RightHand  0.0545008 -8.22333 -3.82061
LeftUpLeg  -12.4042 -0.588678 6.14916
LeftLeg  71.6979 2.37974 9.01474
LeftFoot  -5.52065 0.162466 -2.57131
LeftToes  9.04034e-010 7.59002e-011 -1.12606e-011
